<svg fill="none" height="120" viewBox="0 0 504 120" width="504" xmlns="http://www.w3.org/2000/svg"><path d="m26.4168 34.0078c-1.5895 2.6553-9.324 4.6713-11.7864 7.0809-2.3991 2.3476-2.7208 3.9003-2.2775 7.4407-.6012 0-.2458.0429-.8259-.0343-6.50719-.8654-11.527-6.4273-11.527-13.1596 0-7.3325 5.95478-13.2767 13.3004-13.2767 6.5903 0 12.0611 4.7847 13.1164 11.0639.121.7196 0 .1312 0 .8851z" fill="#fff"/><path d="m63.5832 34.0078c1.5895 2.6553 9.324 4.6713 11.7864 7.0809 2.3991 2.3476 2.7208 3.9003 2.2775 7.4407.6012 0 .2458.0429.8259-.0343 6.5072-.8654 11.527-6.4273 11.527-13.1596 0-7.3325-5.9548-13.2767-13.3004-13.2767-6.5903 0-12.0611 4.7847-13.1164 11.0639-.121.7196 0 .1312 0 .8851z" fill="#fff"/><path d="m79.4114 45.4381c-.0014-1.3155-.3553-2.6075-1.0264-3.7464s-1.6358-2.0847-2.7971-2.7424l-26.7647-15.0031c-1.1625-.6584-2.4812-1.005-3.8235-1.005-1.3424 0-2.6611.3466-3.8236 1.005l-26.7647 15.0031c-1.1613.6577-2.1259 1.6035-2.797 2.7424s-1.0251 2.4309-1.0265 3.7464v30.0061c.0014 1.3155.3554 2.6075 1.0265 3.7464.6711 1.139 1.6357 2.0847 2.797 2.7425l26.7647 15.003c1.1625.6584 2.4812 1.0051 3.8236 1.0051 1.3423 0 2.661-.3467 3.8235-1.0051l26.7647-15.003c1.1613-.6578 2.126-1.6035 2.7971-2.7425.6711-1.1389 1.025-2.4309 1.0264-3.7464z" stroke="#fff" stroke-linecap="round" stroke-linejoin="round" stroke-width="5"/><g fill="#fff"><rect height="8.82353" rx="4.41176" transform="matrix(.70710678 -.70710678 .70710678 .70710678 -35.902754 33.876685)" width="14.1176" x="22.9414" y="60.2768"/><rect height="8.82353" rx="4.41176" transform="matrix(.70710678 .70710678 -.70710678 .70710678 52.221015 -25.484483)" width="14.1176" x="56.873" y="50.2941"/><rect height="5.29412" rx="2.64706" width="14.1176" x="37.9414" y="64.4118"/><path d="m37.9414 76.4912c0-.329.2792-.5889.6073-.5655l6.0113.4294c.2931.0209.5873.0209.8804 0l6.0113-.4294c.3282-.0234.6074.2365.6074.5655 0 .2396-.1507.4533-.3763.5339l-4.3084 1.5388c-1.5353.5483-3.213.5483-4.7483 0l-4.3084-1.5388c-.2257-.0806-.3763-.2943-.3763-.5339z"/></g><path d="m45.0586 68.8235v7.9412" stroke="#fff"/><path d="m122.66 83.28c-3.733 0-7.07-.84-10.01-2.52-2.893-1.7267-5.18-4.0367-6.86-6.93-1.633-2.94-2.45-6.2533-2.45-9.94 0-3.78.817-7.14 2.45-10.08s3.873-5.2267 6.72-6.86c2.847-1.68 6.113-2.52 9.8-2.52 2.753 0 5.273.5367 7.56 1.61 2.287 1.0267 4.34 2.59 6.16 4.69.653.7467.887 1.5167.7 2.31s-.7 1.4933-1.54 2.1c-.653.4667-1.377.63-2.17.49-.793-.1867-1.517-.6067-2.17-1.26-2.287-2.4267-5.133-3.64-8.54-3.64-2.38 0-4.48.56-6.3 1.68-1.82 1.0733-3.243 2.59-4.27 4.55s-1.54 4.27-1.54 6.93c0 2.52.513 4.76 1.54 6.72 1.073 1.96 2.543 3.5233 4.41 4.69 1.867 1.12 4.037 1.68 6.51 1.68 1.633 0 3.057-.1867 4.27-.56 1.26-.42 2.403-1.05 3.43-1.89.747-.6067 1.517-.9333 2.31-.98.793-.0933 1.493.1167 2.1.63.793.6533 1.237 1.4 1.33 2.24.093.7933-.187 1.5167-.84 2.17-3.36 3.1267-7.56 4.69-12.6 4.69zm37.841 0c-3.78 0-7.117-.8167-10.01-2.45-2.893-1.68-5.18-3.9667-6.86-6.86-1.633-2.94-2.45-6.3-2.45-10.08 0-3.8267.817-7.1867 2.45-10.08 1.68-2.94 3.967-5.2267 6.86-6.86 2.893-1.68 6.23-2.52 10.01-2.52 3.733 0 7.047.84 9.94 2.52 2.893 1.6333 5.157 3.92 6.79 6.86 1.68 2.8933 2.52 6.2533 2.52 10.08 0 3.78-.817 7.14-2.45 10.08-1.633 2.8933-3.897 5.18-6.79 6.86-2.893 1.6333-6.23 2.45-10.01 2.45zm0-6.3c2.427 0 4.573-.56 6.44-1.68s3.313-2.66 4.34-4.62c1.073-1.96 1.61-4.2233 1.61-6.79s-.537-4.83-1.61-6.79c-1.027-2.0067-2.473-3.57-4.34-4.69s-4.013-1.68-6.44-1.68-4.573.56-6.44 1.68-3.337 2.6833-4.41 4.69c-1.073 1.96-1.61 4.2233-1.61 6.79s.537 4.83 1.61 6.79 2.543 3.5 4.41 4.62 4.013 1.68 6.44 1.68zm36.507 5.95c-1.446 0-2.566-.77-3.36-2.31l-14.84-31.29c-.373-.7933-.42-1.5633-.14-2.31.327-.7933.934-1.4 1.82-1.82.794-.42 1.587-.49 2.38-.21.84.28 1.47.8167 1.89 1.61l13.86 29.89h-3.36l13.72-29.89c.42-.7933 1.05-1.33 1.89-1.61.887-.28 1.774-.21 2.66.21.84.3733 1.4.9567 1.68 1.75s.234 1.5867-.14 2.38l-14.84 31.29c-.7 1.54-1.773 2.31-3.22 2.31zm37.823.35c-3.874 0-7.327-.8167-10.36-2.45-2.987-1.68-5.344-3.9667-7.07-6.86-1.68-2.94-2.52-6.3-2.52-10.08 0-3.8267.793-7.1867 2.38-10.08 1.633-2.94 3.873-5.2267 6.72-6.86 2.846-1.68 6.113-2.52 9.8-2.52 3.64 0 6.766.8167 9.38 2.45 2.613 1.5867 4.596 3.8033 5.95 6.65 1.4 2.8 2.1 6.0433 2.1 9.73 0 .8867-.304 1.6333-.91 2.24-.607.56-1.377.84-2.31.84h-28.21v-5.6h28l-2.87 1.96c-.047-2.3333-.514-4.41-1.4-6.23-.887-1.8667-2.147-3.3367-3.78-4.41-1.634-1.0733-3.617-1.61-5.95-1.61-2.66 0-4.947.5833-6.86 1.75-1.867 1.1667-3.29 2.7767-4.27 4.83-.98 2.0067-1.47 4.2933-1.47 6.86s.583 4.8533 1.75 6.86c1.166 2.0067 2.776 3.5933 4.83 4.76 2.053 1.1667 4.41 1.75 7.07 1.75 1.446 0 2.916-.2567 4.41-.77 1.54-.56 2.776-1.19 3.71-1.89.7-.5133 1.446-.77 2.24-.77.84-.0467 1.563.1867 2.17.7.793.7 1.213 1.47 1.26 2.31.046.84-.327 1.5633-1.12 2.17-1.587 1.26-3.57 2.2867-5.95 3.08-2.334.7933-4.574 1.19-6.72 1.19zm24.716-24.22c0-2.8.677-5.2967 2.03-7.49 1.4-2.24 3.267-4.0133 5.6-5.32 2.334-1.3067 4.9-1.96 7.7-1.96s4.877.4667 6.23 1.4c1.4.8867 1.937 1.96 1.61 3.22-.14.6533-.42 1.1667-.84 1.54-.373.3267-.816.5367-1.33.63-.513.0933-1.073.07-1.68-.07-2.986-.6067-5.67-.6533-8.05-.14s-4.27 1.47-5.67 2.87c-1.353 1.4-2.03 3.1733-2.03 5.32zm.07 23.94c-1.12 0-1.983-.28-2.59-.84-.606-.6067-.91-1.4933-.91-2.66v-31.29c0-1.12.304-1.9833.91-2.59.607-.6067 1.47-.91 2.59-.91 1.167 0 2.03.3033 2.59.91.607.56.91 1.4233.91 2.59v31.29c0 1.12-.303 1.9833-.91 2.59-.56.6067-1.423.91-2.59.91zm29.913 16.38c-1.027 0-1.89-.35-2.59-1.05-.653-.6533-.98-1.4933-.98-2.52v-31.92c.047-3.6867.91-7 2.59-9.94s3.967-5.25 6.86-6.93c2.893-1.7267 6.16-2.59 9.8-2.59 3.687 0 6.977.8633 9.87 2.59 2.893 1.68 5.18 3.99 6.86 6.93 1.727 2.94 2.59 6.2533 2.59 9.94s-.793 7-2.38 9.94c-1.54 2.8933-3.663 5.2033-6.37 6.93-2.707 1.68-5.763 2.52-9.17 2.52-2.753 0-5.297-.56-7.63-1.68-2.287-1.1667-4.247-2.73-5.88-4.69v18.9c0 1.0267-.327 1.8667-.98 2.52-.653.7-1.517 1.05-2.59 1.05zm15.68-22.4c2.38 0 4.503-.56 6.37-1.68 1.867-1.1667 3.337-2.73 4.41-4.69 1.12-2.0067 1.68-4.2467 1.68-6.72 0-2.52-.56-4.76-1.68-6.72-1.073-2.0067-2.543-3.57-4.41-4.69-1.867-1.1667-3.99-1.75-6.37-1.75-2.333 0-4.457.5833-6.37 1.75-1.867 1.12-3.337 2.6833-4.41 4.69-1.073 1.96-1.61 4.2-1.61 6.72 0 2.4733.537 4.7133 1.61 6.72 1.073 1.96 2.543 3.5233 4.41 4.69 1.913 1.12 4.037 1.68 6.37 1.68zm41.729 6.3c-3.407 0-6.463-.84-9.17-2.52-2.707-1.7267-4.853-4.0367-6.44-6.93-1.54-2.94-2.31-6.2533-2.31-9.94s.84-7 2.52-9.94c1.727-2.94 4.037-5.25 6.93-6.93 2.94-1.7267 6.23-2.59 9.87-2.59s6.907.8633 9.8 2.59c2.893 1.68 5.18 3.99 6.86 6.93 1.727 2.94 2.59 6.2533 2.59 9.94h-2.73c0 3.6867-.793 7-2.38 9.94-1.54 2.8933-3.663 5.2033-6.37 6.93-2.707 1.68-5.763 2.52-9.17 2.52zm1.4-6.3c2.38 0 4.503-.56 6.37-1.68 1.867-1.1667 3.337-2.73 4.41-4.69 1.073-2.0067 1.61-4.2467 1.61-6.72 0-2.52-.537-4.76-1.61-6.72-1.073-2.0067-2.543-3.57-4.41-4.69-1.867-1.1667-3.99-1.75-6.37-1.75-2.333 0-4.457.5833-6.37 1.75-1.867 1.12-3.36 2.6833-4.48 4.69-1.073 1.96-1.61 4.2-1.61 6.72 0 2.4733.537 4.7133 1.61 6.72 1.12 1.96 2.613 3.5233 4.48 4.69 1.913 1.12 4.037 1.68 6.37 1.68zm15.68 6.09c-1.027 0-1.89-.3267-2.59-.98-.653-.7-.98-1.5633-.98-2.59v-10.71l1.33-7.42 5.81 2.52v15.61c0 1.0267-.35 1.89-1.05 2.59-.653.6533-1.493.98-2.52.98zm42.336 0c-1.026 0-1.89-.3267-2.59-.98-.653-.7-.98-1.5633-.98-2.59v-17.22c0-2.66-.49-4.83-1.47-6.51s-2.31-2.9167-3.99-3.71c-1.633-.84-3.523-1.26-5.67-1.26-1.96 0-3.733.3967-5.32 1.19-1.586.7933-2.846 1.8667-3.78 3.22-.933 1.3067-1.4 2.8233-1.4 4.55h-4.41c0-2.94.7-5.5533 2.1-7.84 1.447-2.3333 3.407-4.1767 5.88-5.53 2.474-1.3533 5.25-2.03 8.33-2.03 3.22 0 6.09.7 8.61 2.1 2.567 1.3533 4.574 3.36 6.02 6.02 1.494 2.66 2.24 5.9267 2.24 9.8v17.22c0 1.0267-.35 1.89-1.05 2.59-.653.6533-1.493.98-2.52.98zm-28.77 0c-1.026 0-1.89-.3267-2.59-.98-.653-.7-.98-1.5633-.98-2.59v-31.22c0-1.0733.327-1.9367.98-2.59.7-.6533 1.564-.98 2.59-.98 1.074 0 1.937.3267 2.59.98.654.6533.98 1.5167.98 2.59v31.22c0 1.0267-.326 1.89-.98 2.59-.653.6533-1.516.98-2.59.98zm57.305.21c-3.64 0-6.93-.84-9.87-2.52-2.893-1.7267-5.203-4.06-6.93-7-1.68-2.94-2.52-6.2533-2.52-9.94s.77-6.9767 2.31-9.87c1.587-2.94 3.733-5.25 6.44-6.93 2.707-1.7267 5.763-2.59 9.17-2.59 2.753 0 5.297.5833 7.63 1.75 2.333 1.12 4.293 2.66 5.88 4.62v-18.9c0-1.0733.327-1.9367.98-2.59.7-.6533 1.563-.98 2.59-.98 1.073 0 1.937.3267 2.59.98s.98 1.5167.98 2.59v31.92c0 3.6867-.863 7-2.59 9.94-1.68 2.94-3.967 5.2733-6.86 7-2.893 1.68-6.16 2.52-9.8 2.52zm0-6.3c2.38 0 4.503-.56 6.37-1.68 1.867-1.1667 3.337-2.7533 4.41-4.76s1.61-4.2467 1.61-6.72c0-2.52-.537-4.76-1.61-6.72s-2.543-3.5-4.41-4.62c-1.867-1.1667-3.99-1.75-6.37-1.75-2.333 0-4.457.5833-6.37 1.75-1.867 1.12-3.36 2.66-4.48 4.62-1.073 1.96-1.61 4.2-1.61 6.72 0 2.4733.537 4.7133 1.61 6.72 1.12 2.0067 2.613 3.5933 4.48 4.76 1.913 1.12 4.037 1.68 6.37 1.68zm43.619 6.3c-3.407 0-6.463-.84-9.17-2.52-2.707-1.7267-4.853-4.0367-6.44-6.93-1.54-2.94-2.31-6.2533-2.31-9.94s.84-7 2.52-9.94c1.727-2.94 4.037-5.25 6.93-6.93 2.94-1.7267 6.23-2.59 9.87-2.59s6.907.8633 9.8 2.59c2.893 1.68 5.18 3.99 6.86 6.93 1.727 2.94 2.59 6.2533 2.59 9.94h-2.73c0 3.6867-.793 7-2.38 9.94-1.54 2.8933-3.663 5.2033-6.37 6.93-2.707 1.68-5.763 2.52-9.17 2.52zm1.4-6.3c2.38 0 4.503-.56 6.37-1.68 1.867-1.1667 3.337-2.73 4.41-4.69 1.073-2.0067 1.61-4.2467 1.61-6.72 0-2.52-.537-4.76-1.61-6.72-1.073-2.0067-2.543-3.57-4.41-4.69-1.867-1.1667-3.99-1.75-6.37-1.75-2.333 0-4.457.5833-6.37 1.75-1.867 1.12-3.36 2.6833-4.48 4.69-1.073 1.96-1.61 4.2-1.61 6.72 0 2.4733.537 4.7133 1.61 6.72 1.12 1.96 2.613 3.5233 4.48 4.69 1.913 1.12 4.037 1.68 6.37 1.68zm15.68 6.09c-1.027 0-1.89-.3267-2.59-.98-.653-.7-.98-1.5633-.98-2.59v-10.71l1.33-7.42 5.81 2.52v15.61c0 1.0267-.35 1.89-1.05 2.59-.653.6533-1.493.98-2.52.98z" fill="#fff"/></svg>