<svg xmlns="http://www.w3.org/2000/svg" width="504" height="120" fill="none" viewBox="0 0 504 120"><path fill="#000" d="M26.417 34.008c-1.59 2.655-9.324 4.671-11.787 7.08-2.399 2.348-2.72 3.901-2.277 7.441-.601 0-.246.043-.826-.034C5.02 47.63 0 42.068 0 35.335 0 28.004 5.955 22.06 13.3 22.06c6.59 0 12.061 4.785 13.117 11.064.12.72 0 .13 0 .885m37.166-.001c1.59 2.655 9.324 4.671 11.787 7.08 2.399 2.348 2.72 3.901 2.277 7.441.601 0 .246.043.826-.034C84.98 47.63 90 42.068 90 35.335c0-7.332-5.955-13.276-13.3-13.276-6.59 0-12.061 4.785-13.117 11.064-.12.72 0 .13 0 .885"/><path stroke="#000" stroke-linecap="round" stroke-linejoin="round" stroke-width="5" d="M79.412 45.438c-.002-1.315-.356-2.607-1.027-3.746s-1.635-2.085-2.797-2.743L48.824 23.946A7.76 7.76 0 0 0 45 22.941a7.76 7.76 0 0 0-3.823 1.005L14.412 38.95a7.6 7.6 0 0 0-2.797 2.743 7.4 7.4 0 0 0-1.027 3.746v30.006a7.4 7.4 0 0 0 1.027 3.747 7.6 7.6 0 0 0 2.797 2.742l26.765 15.003A7.76 7.76 0 0 0 45 97.941a7.76 7.76 0 0 0 3.824-1.005l26.764-15.003a7.6 7.6 0 0 0 2.797-2.742 7.4 7.4 0 0 0 1.027-3.747z"/><g fill="#000"><rect width="14.118" height="8.824" x="22.941" y="60.277" rx="4.412" transform="rotate(-45 22.941 60.277)"/><rect width="14.118" height="8.824" x="56.873" y="50.294" rx="4.412" transform="rotate(45 56.873 50.294)"/><rect width="14.118" height="5.294" x="37.941" y="64.412" rx="2.647"/><path d="M37.941 76.491c0-.329.28-.589.608-.565l6.011.43q.44.03.88 0l6.012-.43a.567.567 0 0 1 .23 1.1l-4.308 1.538a7.06 7.06 0 0 1-4.748 0l-4.308-1.539a.57.57 0 0 1-.377-.534"/></g><path stroke="#000" d="M45.06 68.824v7.94"/><path fill="#000" d="M122.66 83.28q-5.6 0-10.01-2.52-4.34-2.59-6.86-6.93-2.45-4.41-2.45-9.94 0-5.67 2.45-10.08c2.45-4.41 3.873-5.227 6.72-6.86q4.27-2.52 9.8-2.52 4.13 0 7.56 1.61 3.43 1.54 6.16 4.69.98 1.12.7 2.31c-.28 1.19-.7 1.493-1.54 2.1a2.77 2.77 0 0 1-2.17.49q-1.19-.28-2.17-1.26-3.43-3.64-8.54-3.64-3.57 0-6.3 1.68-2.73 1.61-4.27 4.55c-1.54 2.94-1.54 4.27-1.54 6.93q0 3.78 1.54 6.72 1.61 2.94 4.41 4.69 2.8 1.68 6.51 1.68 2.45 0 4.27-.56 1.89-.63 3.43-1.89 1.12-.91 2.31-.98a2.64 2.64 0 0 1 2.1.63q1.19.98 1.33 2.24.14 1.19-.84 2.17-5.04 4.69-12.6 4.69m37.841 0q-5.67 0-10.01-2.45a18.6 18.6 0 0 1-6.86-6.86q-2.45-4.41-2.45-10.08 0-5.74 2.45-10.08 2.52-4.41 6.86-6.86 4.34-2.52 10.01-2.52 5.6 0 9.94 2.52 4.34 2.45 6.79 6.86 2.52 4.34 2.52 10.08 0 5.67-2.45 10.08-2.45 4.34-6.79 6.86-4.34 2.45-10.01 2.45m0-6.3q3.64 0 6.44-1.68c2.8-1.68 3.313-2.66 4.34-4.62q1.61-2.94 1.61-6.79c0-3.85-.537-4.83-1.61-6.79q-1.54-3.01-4.34-4.69c-2.8-1.68-4.013-1.68-6.44-1.68s-4.573.56-6.44 1.68-3.337 2.683-4.41 4.69q-1.61 2.94-1.61 6.79c0 3.85.537 4.83 1.61 6.79s2.543 3.5 4.41 4.62 4.013 1.68 6.44 1.68m36.507 5.95q-2.169 0-3.36-2.31l-14.84-31.29q-.56-1.19-.14-2.31.49-1.19 1.82-1.82 1.19-.63 2.38-.21 1.26.42 1.89 1.61l13.86 29.89h-3.36l13.72-29.89q.63-1.19 1.89-1.61 1.33-.42 2.66.21 1.26.56 1.68 1.75c.42 1.19.234 1.587-.14 2.38l-14.84 31.29q-1.05 2.31-3.22 2.31m37.823.35q-5.81 0-10.36-2.45-4.48-2.52-7.07-6.86-2.52-4.41-2.52-10.08 0-5.74 2.38-10.08 2.45-4.41 6.72-6.86 4.27-2.52 9.8-2.52 5.46 0 9.38 2.45 3.92 2.38 5.95 6.65 2.1 4.2 2.1 9.73 0 1.33-.91 2.24-.91.84-2.31.84h-28.21v-5.6h28l-2.87 1.96q-.07-3.5-1.4-6.23-1.33-2.8-3.78-4.41t-5.95-1.61q-3.99 0-6.86 1.75-2.8 1.75-4.27 4.83-1.47 3.01-1.47 6.86c0 3.85.583 4.853 1.75 6.86q1.749 3.01 4.83 4.76t7.07 1.75q2.169 0 4.41-.77 2.31-.84 3.71-1.89 1.05-.77 2.24-.77 1.26-.07 2.17.7 1.19 1.05 1.26 2.31t-1.12 2.17q-2.38 1.89-5.95 3.08-3.501 1.19-6.72 1.19m24.716-24.22q0-4.2 2.03-7.49 2.1-3.36 5.6-5.32t7.7-1.96c4.2 0 4.877.467 6.23 1.4q2.1 1.33 1.61 3.22-.21.98-.84 1.54a2.7 2.7 0 0 1-1.33.63q-.77.14-1.68-.07-4.48-.91-8.05-.14c-3.57.77-4.27 1.47-5.67 2.87q-2.03 2.1-2.03 5.32zm.07 23.94q-1.68 0-2.59-.84-.91-.91-.91-2.66V48.21q0-1.68.91-2.59t2.59-.91q1.75 0 2.59.91.91.84.91 2.59V79.5q0 1.68-.91 2.59-.84.91-2.59.91m29.913 16.38q-1.54 0-2.59-1.05-.98-.98-.98-2.52V63.89q.07-5.53 2.59-9.94c2.52-4.41 3.967-5.25 6.86-6.93q4.34-2.59 9.8-2.59 5.53 0 9.87 2.59 4.34 2.52 6.86 6.93 2.59 4.41 2.59 9.94c0 5.53-.793 7-2.38 9.94q-2.31 4.34-6.37 6.93-4.06 2.52-9.17 2.52-4.13 0-7.63-1.68a18.5 18.5 0 0 1-5.88-4.69v18.9q0 1.54-.98 2.52-.98 1.05-2.59 1.05m15.68-22.4q3.57 0 6.37-1.68 2.8-1.75 4.41-4.69 1.68-3.01 1.68-6.72 0-3.78-1.68-6.72-1.61-3.01-4.41-4.69-2.8-1.75-6.37-1.75-3.5 0-6.37 1.75-2.8 1.68-4.41 4.69-1.61 2.94-1.61 6.72 0 3.71 1.61 6.72 1.61 2.94 4.41 4.69 2.87 1.68 6.37 1.68m41.729 6.3q-5.11 0-9.17-2.52-4.06-2.59-6.44-6.93-2.31-4.41-2.31-9.94c0-5.53.84-7 2.52-9.94q2.59-4.41 6.93-6.93 4.41-2.59 9.87-2.59c5.46 0 6.907.863 9.8 2.59q4.34 2.52 6.86 6.93 2.59 4.41 2.59 9.94h-2.73q0 5.53-2.38 9.94-2.31 4.34-6.37 6.93-4.06 2.52-9.17 2.52m1.4-6.3q3.57 0 6.37-1.68 2.8-1.75 4.41-4.69 1.61-3.01 1.61-6.72 0-3.78-1.61-6.72-1.61-3.01-4.41-4.69-2.8-1.75-6.37-1.75-3.5 0-6.37 1.75-2.8 1.68-4.48 4.69-1.61 2.94-1.61 6.72 0 3.71 1.61 6.72 1.68 2.94 4.48 4.69 2.87 1.68 6.37 1.68m15.68 6.09q-1.54 0-2.59-.98-.98-1.05-.98-2.59V68.79l1.33-7.42 5.81 2.52V79.5q0 1.54-1.05 2.59-.98.98-2.52.98m42.336 0q-1.54 0-2.59-.98-.98-1.05-.98-2.59V62.28q0-3.99-1.47-6.51c-1.47-2.52-2.31-2.917-3.99-3.71q-2.45-1.26-5.67-1.26-2.94 0-5.32 1.19-2.379 1.19-3.78 3.22-1.4 1.96-1.4 4.55h-4.41q0-4.41 2.1-7.84 2.17-3.5 5.88-5.53t8.33-2.03q4.83 0 8.61 2.1 3.85 2.03 6.02 6.02 2.24 3.99 2.24 9.8V79.5q0 1.54-1.05 2.59-.98.98-2.52.98m-28.77 0q-1.54 0-2.59-.98-.98-1.05-.98-2.59V48.28q0-1.61.98-2.59 1.05-.98 2.59-.98 1.61 0 2.59.98t.98 2.59V79.5q0 1.54-.98 2.59-.98.98-2.59.98m57.305.21q-5.46 0-9.87-2.52-4.34-2.59-6.93-7-2.52-4.41-2.52-9.94c0-5.53.77-6.977 2.31-9.87q2.38-4.41 6.44-6.93 4.06-2.59 9.17-2.59 4.13 0 7.63 1.75 3.5 1.68 5.88 4.62V31.9q0-1.61.98-2.59 1.05-.98 2.59-.98 1.61 0 2.59.98c.98.98.98 1.517.98 2.59v31.92q0 5.53-2.59 9.94-2.52 4.41-6.86 7-4.34 2.52-9.8 2.52m0-6.3q3.57 0 6.37-1.68 2.8-1.75 4.41-4.76c1.61-3.01 1.61-4.247 1.61-6.72q0-3.78-1.61-6.72c-1.61-2.94-2.543-3.5-4.41-4.62q-2.8-1.75-6.37-1.75-3.5 0-6.37 1.75-2.8 1.68-4.48 4.62-1.61 2.94-1.61 6.72 0 3.71 1.61 6.72 1.68 3.01 4.48 4.76 2.87 1.68 6.37 1.68m43.619 6.3q-5.11 0-9.17-2.52-4.06-2.59-6.44-6.93-2.31-4.41-2.31-9.94c0-5.53.84-7 2.52-9.94q2.59-4.41 6.93-6.93 4.41-2.59 9.87-2.59c5.46 0 6.907.863 9.8 2.59q4.34 2.52 6.86 6.93 2.59 4.41 2.59 9.94h-2.73q0 5.53-2.38 9.94-2.31 4.34-6.37 6.93-4.06 2.52-9.17 2.52m1.4-6.3q3.57 0 6.37-1.68 2.8-1.75 4.41-4.69 1.61-3.01 1.61-6.72 0-3.78-1.61-6.72-1.61-3.01-4.41-4.69-2.8-1.75-6.37-1.75-3.5 0-6.37 1.75-2.8 1.68-4.48 4.69-1.61 2.94-1.61 6.72 0 3.71 1.61 6.72 1.68 2.94 4.48 4.69 2.87 1.68 6.37 1.68m15.68 6.09q-1.54 0-2.59-.98-.98-1.05-.98-2.59V68.79l1.33-7.42 5.81 2.52V79.5q0 1.54-1.05 2.59-.98.98-2.52.98"/></svg>